<?xml version="1.0" encoding="UTF-8"?>
<svg width="256" height="256" viewBox="0 0 256 256" xmlns="http://www.w3.org/2000/svg">
  <defs>
    <!-- Professional gradient for security app -->
    <radialGradient id="securityGradient" cx="50%" cy="30%" r="80%">
      <stop offset="0%" style="stop-color:#3b82f6;stop-opacity:1" />
      <stop offset="60%" style="stop-color:#1e40af;stop-opacity:1" />
      <stop offset="100%" style="stop-color:#1e3a8a;stop-opacity:1" />
    </radialGradient>
    
    <!-- Shadow filter -->
    <filter id="shadow" x="-30%" y="-30%" width="160%" height="160%">
      <feDropShadow dx="2" dy="4" stdDeviation="4" flood-color="rgba(0,0,0,0.3)"/>
    </filter>
    
    <!-- Glow effect -->
    <filter id="glow" x="-20%" y="-20%" width="140%" height="140%">
      <feGaussianBlur stdDeviation="2" result="coloredBlur"/>
      <feMerge> 
        <feMergeNode in="coloredBlur"/>
        <feMergeNode in="SourceGraphic"/>
      </feMerge>
    </filter>
  </defs>
  
  <!-- Background circle for solid appearance -->
  <circle cx="128" cy="128" r="115" fill="#1e3a8a" opacity="1"/>
  
  <!-- Main shield shape -->
  <path d="M128 25 
           C 175 25, 210 45, 210 85
           C 210 125, 210 165, 190 205
           C 170 235, 145 245, 128 250
           C 111 245, 86 235, 66 205
           C 46 165, 46 125, 46 85
           C 46 45, 81 25, 128 25 Z" 
        fill="url(#securityGradient)" 
        stroke="#1e40af" 
        stroke-width="3"
        filter="url(#shadow)"/>
  
  <!-- Inner shield highlight -->
  <path d="M128 35 
           C 165 35, 195 52, 195 88
           C 195 120, 195 152, 178 188
           C 161 212, 140 220, 128 225
           C 116 220, 95 212, 78 188
           C 61 152, 61 120, 61 88
           C 61 52, 91 35, 128 35 Z" 
        fill="rgba(255,255,255,0.15)" 
        stroke="rgba(255,255,255,0.2)" 
        stroke-width="2"/>
  
  <!-- Professional lock icon -->
  <!-- Lock body -->
  <rect x="95" y="135" width="66" height="70" rx="8" ry="8" 
        fill="#ffffff" 
        stroke="#1e40af" 
        stroke-width="2"
        filter="url(#glow)"/>
  
  <!-- Lock shackle -->
  <path d="M 110 135 
           C 110 118, 118 105, 128 105
           C 138 105, 146 118, 146 135" 
        fill="none" 
        stroke="#ffffff" 
        stroke-width="8" 
        stroke-linecap="round"
        filter="url(#glow)"/>
  
  <!-- Keyhole -->
  <circle cx="128" cy="155" r="6" fill="#1e40af"/>
  <rect x="125" y="155" width="6" height="20" rx="3" fill="#1e40af"/>
  
  <!-- Professional details -->
  <circle cx="80" cy="90" r="3" fill="rgba(255,255,255,0.7)"/>
  <circle cx="176" cy="90" r="3" fill="rgba(255,255,255,0.7)"/>
  <circle cx="128" cy="75" r="2" fill="rgba(255,255,255,0.8)"/>
  
  <!-- Top highlight for 3D effect -->
  <ellipse cx="128" cy="60" rx="35" ry="15" 
           fill="rgba(255,255,255,0.3)" 
           opacity="0.8"/>
</svg>