<?xml version="1.0" encoding="UTF-8"?>
<svg width="128" height="128" viewBox="0 0 256 256" xmlns="http://www.w3.org/2000/svg">
  <defs>
    <!-- Blue gradient for shield -->
    <linearGradient id="shieldGradient" x1="0%" y1="0%" x2="0%" y2="100%">
      <stop offset="0%" style="stop-color:#60a5fa;stop-opacity:1" />
      <stop offset="50%" style="stop-color:#3b82f6;stop-opacity:1" />
      <stop offset="100%" style="stop-color:#2563eb;stop-opacity:1" />
    </linearGradient>
    
    <!-- Shadow filter -->
    <filter id="shadow" x="-20%" y="-20%" width="140%" height="140%">
      <feDropShadow dx="0" dy="4" stdDeviation="8" flood-color="rgba(0,0,0,0.3)"/>
    </filter>
  </defs>
  
  <!-- Shield shape -->
  <path d="M128 20 
           C 180 20, 220 40, 220 80
           C 220 120, 220 160, 200 200
           C 180 230, 150 240, 128 245
           C 106 240, 76 230, 56 200
           C 36 160, 36 120, 36 80
           C 36 40, 76 20, 128 20 Z" 
        fill="url(#shieldGradient)" 
        filter="url(#shadow)"
        stroke="rgba(255,255,255,0.2)" 
        stroke-width="2"/>
  
  <!-- Padlock body -->
  <rect x="98" y="130" width="60" height="70" rx="8" ry="8" 
        fill="#ffffff" 
        stroke="rgba(37,99,235,0.3)" 
        stroke-width="1"/>
  
  <!-- Padlock shackle -->
  <path d="M 108 130 
           C 108 110, 118 95, 128 95
           C 138 95, 148 110, 148 130" 
        fill="none" 
        stroke="#ffffff" 
        stroke-width="8" 
        stroke-linecap="round"/>
  
  <!-- Padlock keyhole -->
  <circle cx="128" cy="155" r="6" fill="#2563eb"/>
  <rect x="125" y="155" width="6" height="20" rx="3" fill="#2563eb"/>
  
  <!-- Highlight on shield -->
  <ellipse cx="128" cy="60" rx="40" ry="20" 
           fill="rgba(255,255,255,0.3)" 
           opacity="0.6"/>
</svg>